<svg width="44.615814" height="45.000031" viewBox="0 0 44.6158 45" fill="none" xmlns="http://www.w3.org/2000/svg" xmlns:xlink="http://www.w3.org/1999/xlink">
	<desc>
			Created with Pixso.
	</desc>
	<defs/>
	<path id="Vector" d="M19.72 14.13L30.09 3.84L40.76 14.51L30.43 24.8L19.72 14.13Z" fill="#B68C5A" fill-opacity="1.000000" fill-rule="nonzero"/>
	<path id="Vector" d="M18.86 12.47C18.22 13.11 17.2 13.11 16.6 12.47L16.52 12.38C15.92 11.78 15.96 10.93 16.43 10.25C18.95 6.28 23.22 2.09 26.42 0.3C27.15 -0.08 27.96 -0.17 28.55 0.43L28.68 0.56C29.28 1.15 29.28 2.18 28.68 2.78L18.86 12.47Z" fill="#B68C5A" fill-opacity="1.000000" fill-rule="nonzero"/>
	<path id="Vector" d="M32.05 25.7C31.41 26.34 31.41 27.32 32.05 27.96L32.14 28.05C32.74 28.65 33.59 28.6 34.27 28.18C38.29 25.66 42.51 21.43 44.31 18.23C44.69 17.5 44.78 16.69 44.18 16.09L44.05 15.97C43.45 15.37 42.43 15.33 41.79 15.97L32.05 25.7Z" fill="#B68C5A" fill-opacity="1.000000" fill-rule="nonzero"/>
	<path id="Vector" d="M1.23 43.16C1.02 43.07 0.93 42.82 0.76 42.69C0.25 42.01 0 41.15 0 40.3C0.04 39.23 0.46 38.25 1.28 37.52L22.15 19.17L23.77 20.75L25.35 22.37L6.87 43.12C6.14 43.89 5.16 44.35 4.09 44.4C3.24 44.4 2.39 44.14 1.7 43.63C1.53 43.46 1.32 43.37 1.23 43.16Z" fill="#B68C5A" fill-opacity="1.000000" fill-rule="nonzero"/>
	<path id="Vector" d="M19.21 36.76L18.01 38.12L18.01 39.53L16.9 39.53L15.41 41.02L15.41 45L43.88 45L43.88 41.02L42.34 39.53L41.23 39.53L41.23 38.12L40.04 36.76L19.21 36.76Z" fill="#B68C5A" fill-opacity="1.000000" fill-rule="nonzero"/>
</svg>
